<svg width="100" height="100" viewBox="0 0 100 100" fill="none" xmlns="http://www.w3.org/2000/svg">
<path d="M75 33.3333H70.8333V25C70.8333 13.5 61.5 4.16666 50 4.16666C38.5 4.16666 29.1667 13.5 29.1667 25V33.3333H25C20.4167 33.3333 16.6667 37.0833 16.6667 41.6667V83.3333C16.6667 87.9167 20.4167 91.6667 25 91.6667H75C79.5833 91.6667 83.3333 87.9167 83.3333 83.3333V41.6667C83.3333 37.0833 79.5833 33.3333 75 33.3333ZM50 70.8333C45.4167 70.8333 41.6667 67.0833 41.6667 62.5C41.6667 57.9167 45.4167 54.1667 50 54.1667C54.5833 54.1667 58.3333 57.9167 58.3333 62.5C58.3333 67.0833 54.5833 70.8333 50 70.8333ZM62.9167 33.3333H37.0833V25C37.0833 17.875 42.875 12.0833 50 12.0833C57.125 12.0833 62.9167 17.875 62.9167 25V33.3333Z" fill="currentColor"/>
</svg>
